<?xml version="1.0" encoding="utf-8"?>
<svg height="60px" viewBox="0 0 674 350"
  version="1.1"
  xmlns="http://www.w3.org/2000/svg"
  xmlns:xlink="http://www.w3.org/1999/xlink">
  <title>logo</title>
  <g fill="#5880AF" fill-rule="evenodd">
      <path d="M658.632075,146.059908 L674,146.059908 L659.091607,162.9593 L659.091607,350 L15.5722569,350 L15.5722569,163.711823 L-4.54747351e-13,146.059908 L15.6998572,146.059908 L658.632075,146.059908 Z M137.682191,186.359447 L137.682191,340.230415 L149.893184,340.230415 L149.893184,186.359447 L137.682191,186.359447 Z M527.212879,186.359447 L527.212879,340.230415 L539.423872,340.230415 L539.423872,186.359447 L527.212879,186.359447 Z M171.872972,186.359447 L171.872972,340.230415 L214.611449,340.230415 L214.611449,186.359447 L171.872972,186.359447 Z M236.591237,186.359447 L236.591237,340.230415 L287.877409,340.230415 L287.877409,186.359447 L236.591237,186.359447 Z M312.299396,186.359447 L312.299396,340.230415 L363.585568,340.230415 L363.585568,186.359447 L312.299396,186.359447 Z M388.007555,186.359447 L388.007555,340.230415 L439.293727,340.230415 L439.293727,186.359447 L388.007555,186.359447 Z M461.273515,186.359447 L461.273515,340.230415 L504.011992,340.230415 L504.011992,186.359447 L461.273515,186.359447 Z M46.3549409,85 L46.3549409,98.4331797 L34.1439476,85 L46.3549409,85 Z M633.750556,85 L645.961549,85 L633.750556,98.4331797 L633.750556,85 Z" id="Combined-Shape"></path>
      <rect id="Rectangle-Copy" x="46" y="85" width="588" height="55"></rect>
      <path d="M125,78.9999898 C163.632357,32.2159246 244.720738,0 338.499996,0 C432.279253,0 513.367635,32.2159246 551.999992,78.9999898 L124.999992,79 Z" id="Combined-Shape"></path>
  </g>
</svg>
