<?xml version="1.0" encoding="utf-8"?>
<svg height="60px" viewBox="0 0 386 479"
  version="1.1"
  xmlns="http://www.w3.org/2000/svg"
  xmlns:xlink="http://www.w3.org/1999/xlink">
  <title>icon</title>
  <g fill="#5880AF" fill-rule="evenodd" transform="translate(-25.000000, 0.000000)">
      <path d="M172.472336,399.365522 L347.709292,426.563948 L347.841645,408.629096 C238.948095,389.669312 183.832375,344.68545 182.494485,273.677509 C182.066345,250.954154 185.411133,232.963517 192.528848,219.705599 L155.78677,213.886226 L154.435922,372.158401 C157.597136,369.887428 160.922389,367.498631 164.411682,364.992009 L219.835477,365.013963 L172.472336,399.365522 Z" id="Combined-Shape"></path>
      <path d="M165.058892,370 L204.513573,370.019763 L133.123134,421.647056 C124.056785,418.064136 117.06171,413.583719 112.13791,408.205804 C113.18495,407.450308 130.825277,394.71504 165.058892,370 Z" id="Rectangle-6-Copy-4"></path>
      <path d="M24.9955875,104.170898 L245.691157,138.952817 L279.357325,180.097259 L279.361482,223.558229 L25.0038979,183.409058 L24.9955875,104.170898 Z M163.212151,0.171760379 L368.231018,32.4898059 L244.0646,127.210843 L39.0457336,94.8927971 L163.212151,0.171760379 Z M377.750432,40.989329 L408.526266,79.5349625 L285.790694,171.543398 L255.01486,132.997764 L377.750432,40.989329 Z M410.990352,90.5068885 L410.993115,111.590688 L403.250753,117.340067 L403.253074,135.052508 L288.259469,218.293136 L288.25478,182.515324 L410.990352,90.5068885 Z" id="Combined-Shape"></path>
      <path d="M17,209 L113.930759,211.324173 C69.804422,237.187014 52.2786778,278.573274 61.353526,335.482953 C72.5463546,405.674792 133.307867,442.582398 243.638063,446.205769 L246,464 L50.4743327,461.187072 L17,209 Z" id="Rectangle-5-Copy-2" transform="translate(131.500000, 336.500000) rotate(8.000000) translate(-131.500000, -336.500000) "></path>
  </g>
</svg>
